<?xml version="1.0" encoding="UTF-8"?>
<svg xmlns="http://www.w3.org/2000/svg" width="720" height="320" viewBox="0 0 720 320" font-family="-apple-system,BlinkMacSystemFont,Segoe UI,sans-serif" font-size="12">
<rect width="720" height="320" fill="#ffffff"/>
<text x="360" y="24" text-anchor="middle" font-size="14" font-weight="600" fill="#222">Test runtime (jobs=4, median)</text>
<line x1="72" y1="44.0" x2="696" y2="44.0" stroke="#e6e6e6" stroke-width="1"/>
<text x="64" y="44.0" text-anchor="end" dominant-baseline="middle" fill="#222">484</text>
<line x1="72" y1="156.0" x2="696" y2="156.0" stroke="#e6e6e6" stroke-width="1"/>
<text x="64" y="156.0" text-anchor="end" dominant-baseline="middle" fill="#222">242</text>
<line x1="72" y1="268.0" x2="696" y2="268.0" stroke="#e6e6e6" stroke-width="1"/>
<text x="64" y="268.0" text-anchor="end" dominant-baseline="middle" fill="#222">0</text>
<text x="16" y="156" text-anchor="middle" fill="#222" transform="rotate(-90 16 156)">seconds</text>
<line x1="72" y1="44" x2="72" y2="268" stroke="#444" stroke-width="1"/>
<line x1="72" y1="268" x2="696" y2="268" stroke="#444" stroke-width="1"/>
<line x1="72.0" y1="268" x2="72.0" y2="272" stroke="#444" stroke-width="1"/>
<text x="72.0" y="286" text-anchor="middle" fill="#222">2026-06-21</text>
<line x1="179.6" y1="268" x2="179.6" y2="272" stroke="#444" stroke-width="1"/>
<text x="179.6" y="286" text-anchor="middle" fill="#222">2026-06-25</text>
<line x1="287.2" y1="268" x2="287.2" y2="272" stroke="#444" stroke-width="1"/>
<text x="287.2" y="286" text-anchor="middle" fill="#222">2026-06-30</text>
<line x1="394.8" y1="268" x2="394.8" y2="272" stroke="#444" stroke-width="1"/>
<text x="394.8" y="286" text-anchor="middle" fill="#222">2026-07-02</text>
<line x1="502.3" y1="268" x2="502.3" y2="272" stroke="#444" stroke-width="1"/>
<text x="502.3" y="286" text-anchor="middle" fill="#222">2026-07-04</text>
<line x1="609.9" y1="268" x2="609.9" y2="272" stroke="#444" stroke-width="1"/>
<text x="609.9" y="286" text-anchor="middle" fill="#222">2026-07-06#2</text>
<line x1="696.0" y1="268" x2="696.0" y2="272" stroke="#444" stroke-width="1"/>
<text x="696.0" y="286" text-anchor="middle" fill="#222">2026-07-08#2</text>
<polyline fill="none" stroke="#1f77b4" stroke-width="2" stroke-linejoin="round" stroke-linecap="round" points="72.0,83.6 93.5,80.3 115.0,77.1 136.6,83.6 158.1,81.3 179.6,74.6 201.1,76.8 222.6,76.8 244.1,64.0 265.7,64.0 287.2,76.8 308.7,78.5 330.2,256.6 351.7,256.6 373.2,256.8 394.8,256.8 416.3,258.9 437.8,258.9 459.3,258.9 480.8,131.7 502.3,258.7 523.9,258.5 545.4,109.8 566.9,258.5 588.4,258.5 609.9,258.5 631.4,258.4 653.0,258.4 674.5,258.2 696.0,258.4"/>
<circle cx="696.0" cy="258.4" r="3" fill="#1f77b4"/>
<polyline fill="none" stroke="#ff7f0e" stroke-width="2" stroke-linejoin="round" stroke-linecap="round" points="72.0,202.6 93.5,200.1 115.0,198.4 136.6,202.6 158.1,201.2 179.6,198.4 201.1,199.8 222.6,199.8 244.1,195.6 265.7,195.6 287.2,199.4 308.7,199.4 330.2,264.0 351.7,264.0 373.2,264.0 394.8,264.0 416.3,264.3 437.8,264.3 459.3,264.3 480.8,205.1 502.3,264.3 523.9,264.3 545.4,200.7 566.9,264.3 588.4,264.3 609.9,264.3 631.4,264.3 653.0,264.3 674.5,264.2 696.0,264.3"/>
<circle cx="696.0" cy="264.3" r="3" fill="#ff7f0e"/>
<line x1="586" y1="50" x2="604" y2="50" stroke="#1f77b4" stroke-width="2"/>
<text x="610" y="50" dominant-baseline="middle" fill="#222">exec total</text>
<line x1="586" y1="66" x2="604" y2="66" stroke="#ff7f0e" stroke-width="2"/>
<text x="610" y="66" dominant-baseline="middle" fill="#222">wall</text>
</svg>
