<?xml version="1.0" encoding="UTF-8"?>
<svg xmlns="http://www.w3.org/2000/svg" width="720" height="320" viewBox="0 0 720 320" font-family="-apple-system,BlinkMacSystemFont,Segoe UI,sans-serif" font-size="12">
<rect width="720" height="320" fill="#ffffff"/>
<text x="360" y="24" text-anchor="middle" font-size="14" font-weight="600" fill="#222">Test runtime (jobs=4, median)</text>
<line x1="72" y1="44.0" x2="696" y2="44.0" stroke="#e6e6e6" stroke-width="1"/>
<text x="64" y="44.0" text-anchor="end" dominant-baseline="middle" fill="#222">492</text>
<line x1="72" y1="156.0" x2="696" y2="156.0" stroke="#e6e6e6" stroke-width="1"/>
<text x="64" y="156.0" text-anchor="end" dominant-baseline="middle" fill="#222">246</text>
<line x1="72" y1="268.0" x2="696" y2="268.0" stroke="#e6e6e6" stroke-width="1"/>
<text x="64" y="268.0" text-anchor="end" dominant-baseline="middle" fill="#222">0</text>
<text x="16" y="156" text-anchor="middle" fill="#222" transform="rotate(-90 16 156)">seconds</text>
<line x1="72" y1="44" x2="72" y2="268" stroke="#444" stroke-width="1"/>
<line x1="72" y1="268" x2="696" y2="268" stroke="#444" stroke-width="1"/>
<line x1="72.0" y1="268" x2="72.0" y2="272" stroke="#444" stroke-width="1"/>
<text x="72.0" y="286" text-anchor="middle" fill="#222">2026-05-30</text>
<line x1="179.6" y1="268" x2="179.6" y2="272" stroke="#444" stroke-width="1"/>
<text x="179.6" y="286" text-anchor="middle" fill="#222">2026-06-02</text>
<line x1="287.2" y1="268" x2="287.2" y2="272" stroke="#444" stroke-width="1"/>
<text x="287.2" y="286" text-anchor="middle" fill="#222">2026-06-05#2</text>
<line x1="394.8" y1="268" x2="394.8" y2="272" stroke="#444" stroke-width="1"/>
<text x="394.8" y="286" text-anchor="middle" fill="#222">2026-06-09</text>
<line x1="502.3" y1="268" x2="502.3" y2="272" stroke="#444" stroke-width="1"/>
<text x="502.3" y="286" text-anchor="middle" fill="#222">2026-06-11</text>
<line x1="609.9" y1="268" x2="609.9" y2="272" stroke="#444" stroke-width="1"/>
<text x="609.9" y="286" text-anchor="middle" fill="#222">2026-06-13</text>
<line x1="696.0" y1="268" x2="696.0" y2="272" stroke="#444" stroke-width="1"/>
<text x="696.0" y="286" text-anchor="middle" fill="#222">2026-06-17</text>
<polyline fill="none" stroke="#1f77b4" stroke-width="2" stroke-linejoin="round" stroke-linecap="round" points="72.0,123.3 93.5,190.7 115.0,123.3 136.6,84.3 158.1,84.3 179.6,84.3 201.1,82.2 222.6,80.3 244.1,82.2 265.7,80.3 287.2,79.3 308.7,79.3 330.2,81.3 351.7,79.3 373.2,81.3 394.8,256.6 416.3,257.0 437.8,256.6 459.3,256.6 480.8,257.0 502.3,89.2 523.9,89.2 545.4,256.7 566.9,256.7 588.4,89.2 609.9,80.4 631.4,80.4 653.0,78.3 674.5,71.2 696.0,64.0"/>
<circle cx="696.0" cy="64.0" r="3" fill="#1f77b4"/>
<polyline fill="none" stroke="#ff7f0e" stroke-width="2" stroke-linejoin="round" stroke-linecap="round" points="72.0,215.1 93.5,239.7 115.0,215.1 136.6,200.2 158.1,200.2 179.6,200.5 201.1,200.5 222.6,200.5 244.1,201.6 265.7,200.9 287.2,200.9 308.7,200.7 330.2,200.9 351.7,200.9 373.2,201.4 394.8,264.1 416.3,264.2 437.8,264.1 459.3,264.1 480.8,264.2 502.3,204.7 523.9,204.7 545.4,263.9 566.9,263.9 588.4,204.7 609.9,200.9 631.4,200.9 653.0,200.1 674.5,198.0 696.0,195.9"/>
<circle cx="696.0" cy="195.9" r="3" fill="#ff7f0e"/>
<line x1="586" y1="50" x2="604" y2="50" stroke="#1f77b4" stroke-width="2"/>
<text x="610" y="50" dominant-baseline="middle" fill="#222">exec total</text>
<line x1="586" y1="66" x2="604" y2="66" stroke="#ff7f0e" stroke-width="2"/>
<text x="610" y="66" dominant-baseline="middle" fill="#222">wall</text>
</svg>
