<?xml version="1.0" encoding="UTF-8"?>
<svg xmlns="http://www.w3.org/2000/svg" width="720" height="320" viewBox="0 0 720 320" font-family="-apple-system,BlinkMacSystemFont,Segoe UI,sans-serif" font-size="12">
<rect width="720" height="320" fill="#ffffff"/>
<text x="360" y="24" text-anchor="middle" font-size="14" font-weight="600" fill="#222">wrap_recompute_1k_lines — min / p50 / p95</text>
<line x1="72" y1="44.0" x2="696" y2="44.0" stroke="#e6e6e6" stroke-width="1"/>
<text x="64" y="44.0" text-anchor="end" dominant-baseline="middle" fill="#222">1.2M</text>
<line x1="72" y1="156.0" x2="696" y2="156.0" stroke="#e6e6e6" stroke-width="1"/>
<text x="64" y="156.0" text-anchor="end" dominant-baseline="middle" fill="#222">818.9k</text>
<line x1="72" y1="268.0" x2="696" y2="268.0" stroke="#e6e6e6" stroke-width="1"/>
<text x="64" y="268.0" text-anchor="end" dominant-baseline="middle" fill="#222">465.5k</text>
<text x="16" y="156" text-anchor="middle" fill="#222" transform="rotate(-90 16 156)">ns</text>
<line x1="72" y1="44" x2="72" y2="268" stroke="#444" stroke-width="1"/>
<line x1="72" y1="268" x2="696" y2="268" stroke="#444" stroke-width="1"/>
<line x1="72.0" y1="268" x2="72.0" y2="272" stroke="#444" stroke-width="1"/>
<text x="72.0" y="286" text-anchor="middle" fill="#222">2026-08-02</text>
<line x1="179.6" y1="268" x2="179.6" y2="272" stroke="#444" stroke-width="1"/>
<text x="179.6" y="286" text-anchor="middle" fill="#222">2026-08-07</text>
<line x1="287.2" y1="268" x2="287.2" y2="272" stroke="#444" stroke-width="1"/>
<text x="287.2" y="286" text-anchor="middle" fill="#222">2026-08-12</text>
<line x1="394.8" y1="268" x2="394.8" y2="272" stroke="#444" stroke-width="1"/>
<text x="394.8" y="286" text-anchor="middle" fill="#222">2026-08-17</text>
<line x1="502.3" y1="268" x2="502.3" y2="272" stroke="#444" stroke-width="1"/>
<text x="502.3" y="286" text-anchor="middle" fill="#222">2026-08-22</text>
<line x1="609.9" y1="268" x2="609.9" y2="272" stroke="#444" stroke-width="1"/>
<text x="609.9" y="286" text-anchor="middle" fill="#222">2026-08-27</text>
<line x1="696.0" y1="268" x2="696.0" y2="272" stroke="#444" stroke-width="1"/>
<text x="696.0" y="286" text-anchor="middle" fill="#222">2026-08-31</text>
<polyline fill="none" stroke="#1f77b4" stroke-width="2" stroke-linejoin="round" stroke-linecap="round" points="72.0,232.5 93.5,83.7 115.0,87.7 136.6,211.1 158.1,82.0 179.6,86.4 201.1,222.8 222.6,84.2 244.1,213.1 265.7,85.1 287.2,212.4 308.7,244.3 330.2,84.9 351.7,85.0 373.2,88.4 394.8,81.7 416.3,87.3 437.8,214.7 459.3,88.2 480.8,88.2 502.3,83.2 523.9,87.1 545.4,87.6 566.9,214.5 588.4,84.0 609.9,207.9 631.4,87.9 653.0,87.7 674.5,72.6 696.0,84.1"/>
<circle cx="696.0" cy="84.1" r="3" fill="#1f77b4"/>
<polyline fill="none" stroke="#ff7f0e" stroke-width="2" stroke-linejoin="round" stroke-linecap="round" points="72.0,226.5 93.5,78.1 115.0,85.0 136.6,185.8 158.1,76.2 179.6,83.2 201.1,213.6 222.6,72.0 244.1,190.7 265.7,72.4 287.2,206.7 308.7,237.0 330.2,82.1 351.7,73.4 373.2,86.0 394.8,79.5 416.3,82.7 437.8,211.4 459.3,86.4 480.8,85.3 502.3,63.2 523.9,78.5 545.4,83.6 566.9,174.5 588.4,81.8 609.9,187.0 631.4,80.7 653.0,85.7 674.5,69.8 696.0,62.7"/>
<circle cx="696.0" cy="62.7" r="3" fill="#ff7f0e"/>
<polyline fill="none" stroke="#2ca02c" stroke-width="2" stroke-linejoin="round" stroke-linecap="round" points="72.0,240.2 93.5,84.6 115.0,89.1 136.6,217.5 158.1,84.4 179.6,103.0 201.1,230.8 222.6,85.5 244.1,217.5 265.7,85.9 287.2,217.4 308.7,249.3 330.2,85.7 351.7,85.6 373.2,89.2 394.8,82.8 416.3,89.9 437.8,218.1 459.3,88.9 480.8,89.4 502.3,84.7 523.9,89.8 545.4,88.8 566.9,217.6 588.4,85.0 609.9,213.0 631.4,89.0 653.0,89.0 674.5,73.4 696.0,85.3"/>
<circle cx="696.0" cy="85.3" r="3" fill="#2ca02c"/>
<line x1="586" y1="50" x2="604" y2="50" stroke="#1f77b4" stroke-width="2"/>
<text x="610" y="50" dominant-baseline="middle" fill="#222">p50</text>
<line x1="586" y1="66" x2="604" y2="66" stroke="#ff7f0e" stroke-width="2"/>
<text x="610" y="66" dominant-baseline="middle" fill="#222">p95</text>
<line x1="586" y1="82" x2="604" y2="82" stroke="#2ca02c" stroke-width="2"/>
<text x="610" y="82" dominant-baseline="middle" fill="#222">min</text>
</svg>
