<?xml version="1.0" encoding="UTF-8"?>
<svg xmlns="http://www.w3.org/2000/svg" width="720" height="320" viewBox="0 0 720 320" font-family="-apple-system,BlinkMacSystemFont,Segoe UI,sans-serif" font-size="12">
<rect width="720" height="320" fill="#ffffff"/>
<text x="360" y="24" text-anchor="middle" font-size="14" font-weight="600" fill="#222">screen_diff_one_row_changed — min / p50 / p95</text>
<line x1="72" y1="44.0" x2="696" y2="44.0" stroke="#e6e6e6" stroke-width="1"/>
<text x="64" y="44.0" text-anchor="end" dominant-baseline="middle" fill="#222">266.8k</text>
<line x1="72" y1="156.0" x2="696" y2="156.0" stroke="#e6e6e6" stroke-width="1"/>
<text x="64" y="156.0" text-anchor="end" dominant-baseline="middle" fill="#222">180.9k</text>
<line x1="72" y1="268.0" x2="696" y2="268.0" stroke="#e6e6e6" stroke-width="1"/>
<text x="64" y="268.0" text-anchor="end" dominant-baseline="middle" fill="#222">94.9k</text>
<text x="16" y="156" text-anchor="middle" fill="#222" transform="rotate(-90 16 156)">ns</text>
<line x1="72" y1="44" x2="72" y2="268" stroke="#444" stroke-width="1"/>
<line x1="72" y1="268" x2="696" y2="268" stroke="#444" stroke-width="1"/>
<line x1="72.0" y1="268" x2="72.0" y2="272" stroke="#444" stroke-width="1"/>
<text x="72.0" y="286" text-anchor="middle" fill="#222">2026-07-13</text>
<line x1="179.6" y1="268" x2="179.6" y2="272" stroke="#444" stroke-width="1"/>
<text x="179.6" y="286" text-anchor="middle" fill="#222">2026-07-18</text>
<line x1="287.2" y1="268" x2="287.2" y2="272" stroke="#444" stroke-width="1"/>
<text x="287.2" y="286" text-anchor="middle" fill="#222">2026-07-23</text>
<line x1="394.8" y1="268" x2="394.8" y2="272" stroke="#444" stroke-width="1"/>
<text x="394.8" y="286" text-anchor="middle" fill="#222">2026-07-28</text>
<line x1="502.3" y1="268" x2="502.3" y2="272" stroke="#444" stroke-width="1"/>
<text x="502.3" y="286" text-anchor="middle" fill="#222">2026-08-02</text>
<line x1="609.9" y1="268" x2="609.9" y2="272" stroke="#444" stroke-width="1"/>
<text x="609.9" y="286" text-anchor="middle" fill="#222">2026-08-07</text>
<line x1="696.0" y1="268" x2="696.0" y2="272" stroke="#444" stroke-width="1"/>
<text x="696.0" y="286" text-anchor="middle" fill="#222">2026-08-11</text>
<polyline fill="none" stroke="#1f77b4" stroke-width="2" stroke-linejoin="round" stroke-linecap="round" points="72.0,132.0 93.5,131.6 115.0,131.2 136.6,147.7 158.1,148.5 179.6,147.7 201.1,146.6 222.6,149.9 244.1,147.0 265.7,158.7 287.2,159.9 308.7,161.5 330.2,209.4 351.7,159.1 373.2,159.2 394.8,158.5 416.3,157.5 437.8,158.6 459.3,155.6 480.8,166.0 502.3,246.6 523.9,159.7 545.4,155.6 566.9,197.0 588.4,158.5 609.9,95.8 631.4,231.1 653.0,157.4 674.5,201.4 696.0,158.8"/>
<circle cx="696.0" cy="158.8" r="3" fill="#1f77b4"/>
<polyline fill="none" stroke="#ff7f0e" stroke-width="2" stroke-linejoin="round" stroke-linecap="round" points="72.0,127.3 93.5,128.9 115.0,129.1 136.6,145.3 158.1,147.0 179.6,134.0 201.1,144.1 222.6,147.9 244.1,145.8 265.7,62.7 287.2,157.2 308.7,160.5 330.2,207.5 351.7,157.5 373.2,122.1 394.8,158.0 416.3,155.5 437.8,156.2 459.3,154.2 480.8,158.4 502.3,243.8 523.9,156.4 545.4,153.3 566.9,168.4 588.4,115.8 609.9,81.0 631.4,227.8 653.0,121.2 674.5,179.7 696.0,156.2"/>
<circle cx="696.0" cy="156.2" r="3" fill="#ff7f0e"/>
<polyline fill="none" stroke="#2ca02c" stroke-width="2" stroke-linejoin="round" stroke-linecap="round" points="72.0,136.4 93.5,135.3 115.0,136.3 136.6,151.9 158.1,152.8 179.6,152.6 201.1,150.8 222.6,154.0 244.1,151.2 265.7,163.0 287.2,164.4 308.7,165.8 330.2,212.7 351.7,163.6 373.2,163.5 394.8,162.0 416.3,162.2 437.8,161.9 459.3,159.8 480.8,180.5 502.3,249.3 523.9,163.6 545.4,158.7 566.9,209.3 588.4,164.3 609.9,98.5 631.4,234.3 653.0,163.2 674.5,212.9 696.0,163.0"/>
<circle cx="696.0" cy="163.0" r="3" fill="#2ca02c"/>
<line x1="586" y1="50" x2="604" y2="50" stroke="#1f77b4" stroke-width="2"/>
<text x="610" y="50" dominant-baseline="middle" fill="#222">p50</text>
<line x1="586" y1="66" x2="604" y2="66" stroke="#ff7f0e" stroke-width="2"/>
<text x="610" y="66" dominant-baseline="middle" fill="#222">p95</text>
<line x1="586" y1="82" x2="604" y2="82" stroke="#2ca02c" stroke-width="2"/>
<text x="610" y="82" dominant-baseline="middle" fill="#222">min</text>
</svg>
