<?xml version="1.0" encoding="UTF-8"?>
<svg xmlns="http://www.w3.org/2000/svg" width="720" height="320" viewBox="0 0 720 320" font-family="-apple-system,BlinkMacSystemFont,Segoe UI,sans-serif" font-size="12">
<rect width="720" height="320" fill="#ffffff"/>
<text x="360" y="24" text-anchor="middle" font-size="14" font-weight="600" fill="#222">syntax_incremental_5k_lines_c — min / p50 / p95</text>
<line x1="72" y1="44.0" x2="696" y2="44.0" stroke="#e6e6e6" stroke-width="1"/>
<text x="64" y="44.0" text-anchor="end" dominant-baseline="middle" fill="#222">38.8M</text>
<line x1="72" y1="156.0" x2="696" y2="156.0" stroke="#e6e6e6" stroke-width="1"/>
<text x="64" y="156.0" text-anchor="end" dominant-baseline="middle" fill="#222">32.1M</text>
<line x1="72" y1="268.0" x2="696" y2="268.0" stroke="#e6e6e6" stroke-width="1"/>
<text x="64" y="268.0" text-anchor="end" dominant-baseline="middle" fill="#222">25.5M</text>
<text x="16" y="156" text-anchor="middle" fill="#222" transform="rotate(-90 16 156)">ns</text>
<line x1="72" y1="44" x2="72" y2="268" stroke="#444" stroke-width="1"/>
<line x1="72" y1="268" x2="696" y2="268" stroke="#444" stroke-width="1"/>
<line x1="72.0" y1="268" x2="72.0" y2="272" stroke="#444" stroke-width="1"/>
<text x="72.0" y="286" text-anchor="middle" fill="#222">2026-05-28</text>
<line x1="179.6" y1="268" x2="179.6" y2="272" stroke="#444" stroke-width="1"/>
<text x="179.6" y="286" text-anchor="middle" fill="#222">2026-06-02</text>
<line x1="287.2" y1="268" x2="287.2" y2="272" stroke="#444" stroke-width="1"/>
<text x="287.2" y="286" text-anchor="middle" fill="#222">2026-06-07</text>
<line x1="394.8" y1="268" x2="394.8" y2="272" stroke="#444" stroke-width="1"/>
<text x="394.8" y="286" text-anchor="middle" fill="#222">2026-06-12</text>
<line x1="502.3" y1="268" x2="502.3" y2="272" stroke="#444" stroke-width="1"/>
<text x="502.3" y="286" text-anchor="middle" fill="#222">2026-06-17</text>
<line x1="609.9" y1="268" x2="609.9" y2="272" stroke="#444" stroke-width="1"/>
<text x="609.9" y="286" text-anchor="middle" fill="#222">2026-06-22</text>
<line x1="696.0" y1="268" x2="696.0" y2="272" stroke="#444" stroke-width="1"/>
<text x="696.0" y="286" text-anchor="middle" fill="#222">2026-06-26</text>
<polyline fill="none" stroke="#1f77b4" stroke-width="2" stroke-linejoin="round" stroke-linecap="round" points="72.0,117.9 93.5,85.8 115.0,97.6 136.6,67.8 158.1,201.4 179.6,101.4 201.1,107.8 222.6,103.2 244.1,238.5 265.7,110.8 287.2,92.6 308.7,104.1 330.2,122.1 351.7,96.0 373.2,246.7 394.8,112.8 416.3,111.6 437.8,221.5 459.3,204.2 480.8,101.3 502.3,131.4 523.9,123.9 545.4,129.5 566.9,129.2 588.4,205.0 609.9,101.4 631.4,87.4 653.0,241.6 674.5,126.0 696.0,101.1"/>
<circle cx="696.0" cy="101.1" r="3" fill="#1f77b4"/>
<polyline fill="none" stroke="#ff7f0e" stroke-width="2" stroke-linejoin="round" stroke-linecap="round" points="72.0,87.2 93.5,83.7 115.0,89.8 136.6,62.7 158.1,179.1 179.6,98.6 201.1,98.6 222.6,98.0 244.1,233.9 265.7,109.6 287.2,82.2 308.7,73.5 330.2,77.1 351.7,77.4 373.2,234.5 394.8,110.2 416.3,85.5 437.8,208.7 459.3,194.9 480.8,96.5 502.3,128.8 523.9,120.7 545.4,106.9 566.9,120.9 588.4,199.5 609.9,91.0 631.4,67.1 653.0,238.0 674.5,110.9 696.0,65.6"/>
<circle cx="696.0" cy="65.6" r="3" fill="#ff7f0e"/>
<polyline fill="none" stroke="#2ca02c" stroke-width="2" stroke-linejoin="round" stroke-linecap="round" points="72.0,122.7 93.5,87.1 115.0,102.0 136.6,72.7 158.1,206.2 179.6,104.1 201.1,110.6 222.6,104.9 244.1,239.7 265.7,113.6 287.2,102.2 308.7,114.9 330.2,125.4 351.7,113.0 373.2,249.3 394.8,115.3 416.3,120.5 437.8,224.3 459.3,207.7 480.8,107.8 502.3,132.9 523.9,126.9 545.4,131.4 566.9,130.8 588.4,213.6 609.9,110.3 631.4,89.6 653.0,245.5 674.5,135.1 696.0,107.7"/>
<circle cx="696.0" cy="107.7" r="3" fill="#2ca02c"/>
<line x1="586" y1="50" x2="604" y2="50" stroke="#1f77b4" stroke-width="2"/>
<text x="610" y="50" dominant-baseline="middle" fill="#222">p50</text>
<line x1="586" y1="66" x2="604" y2="66" stroke="#ff7f0e" stroke-width="2"/>
<text x="610" y="66" dominant-baseline="middle" fill="#222">p95</text>
<line x1="586" y1="82" x2="604" y2="82" stroke="#2ca02c" stroke-width="2"/>
<text x="610" y="82" dominant-baseline="middle" fill="#222">min</text>
</svg>
