<?xml version="1.0" encoding="UTF-8"?>
<svg xmlns="http://www.w3.org/2000/svg" width="720" height="320" viewBox="0 0 720 320" font-family="-apple-system,BlinkMacSystemFont,Segoe UI,sans-serif" font-size="12">
<rect width="720" height="320" fill="#ffffff"/>
<text x="360" y="24" text-anchor="middle" font-size="14" font-weight="600" fill="#222">syntax_worker_full_parse_5k_lines_c — min / p50 / p95</text>
<line x1="72" y1="44.0" x2="696" y2="44.0" stroke="#e6e6e6" stroke-width="1"/>
<text x="64" y="44.0" text-anchor="end" dominant-baseline="middle" fill="#222">65.8M</text>
<line x1="72" y1="156.0" x2="696" y2="156.0" stroke="#e6e6e6" stroke-width="1"/>
<text x="64" y="156.0" text-anchor="end" dominant-baseline="middle" fill="#222">45.7M</text>
<line x1="72" y1="268.0" x2="696" y2="268.0" stroke="#e6e6e6" stroke-width="1"/>
<text x="64" y="268.0" text-anchor="end" dominant-baseline="middle" fill="#222">25.7M</text>
<text x="16" y="156" text-anchor="middle" fill="#222" transform="rotate(-90 16 156)">ns</text>
<line x1="72" y1="44" x2="72" y2="268" stroke="#444" stroke-width="1"/>
<line x1="72" y1="268" x2="696" y2="268" stroke="#444" stroke-width="1"/>
<line x1="72.0" y1="268" x2="72.0" y2="272" stroke="#444" stroke-width="1"/>
<text x="72.0" y="286" text-anchor="middle" fill="#222">2026-07-16</text>
<line x1="176.0" y1="268" x2="176.0" y2="272" stroke="#444" stroke-width="1"/>
<text x="176.0" y="286" text-anchor="middle" fill="#222">2026-07-19</text>
<line x1="280.0" y1="268" x2="280.0" y2="272" stroke="#444" stroke-width="1"/>
<text x="280.0" y="286" text-anchor="middle" fill="#222">2026-07-22</text>
<line x1="384.0" y1="268" x2="384.0" y2="272" stroke="#444" stroke-width="1"/>
<text x="384.0" y="286" text-anchor="middle" fill="#222">2026-07-25</text>
<line x1="488.0" y1="268" x2="488.0" y2="272" stroke="#444" stroke-width="1"/>
<text x="488.0" y="286" text-anchor="middle" fill="#222">2026-07-28</text>
<line x1="592.0" y1="268" x2="592.0" y2="272" stroke="#444" stroke-width="1"/>
<text x="592.0" y="286" text-anchor="middle" fill="#222">2026-07-31</text>
<line x1="696.0" y1="268" x2="696.0" y2="272" stroke="#444" stroke-width="1"/>
<text x="696.0" y="286" text-anchor="middle" fill="#222">2026-08-03</text>
<polyline fill="none" stroke="#1f77b4" stroke-width="2" stroke-linejoin="round" stroke-linecap="round" points="72.0,106.6 106.7,107.6 141.3,99.2 176.0,101.5 210.7,106.7 245.3,109.5 280.0,94.6 314.7,99.9 349.3,102.9 384.0,176.6 418.7,99.7 453.3,99.0 488.0,107.0 522.7,103.5 557.3,106.3 592.0,105.4 626.7,182.9 661.3,245.7 696.0,97.5"/>
<circle cx="696.0" cy="97.5" r="3" fill="#1f77b4"/>
<polyline fill="none" stroke="#ff7f0e" stroke-width="2" stroke-linejoin="round" stroke-linecap="round" points="72.0,98.1 106.7,101.0 141.3,91.7 176.0,86.6 210.7,93.8 245.3,81.9 280.0,86.0 314.7,62.7 349.3,95.8 384.0,171.8 418.7,74.3 453.3,88.0 488.0,100.5 522.7,85.7 557.3,73.1 592.0,96.4 626.7,174.7 661.3,227.1 696.0,88.6"/>
<circle cx="696.0" cy="88.6" r="3" fill="#ff7f0e"/>
<polyline fill="none" stroke="#2ca02c" stroke-width="2" stroke-linejoin="round" stroke-linecap="round" points="72.0,109.0 106.7,109.0 141.3,102.4 176.0,104.9 210.7,109.5 245.3,110.9 280.0,99.8 314.7,101.8 349.3,104.6 384.0,177.8 418.7,101.3 453.3,100.7 488.0,109.4 522.7,105.1 557.3,109.3 592.0,106.6 626.7,187.6 661.3,249.3 696.0,99.7"/>
<circle cx="696.0" cy="99.7" r="3" fill="#2ca02c"/>
<line x1="586" y1="50" x2="604" y2="50" stroke="#1f77b4" stroke-width="2"/>
<text x="610" y="50" dominant-baseline="middle" fill="#222">p50</text>
<line x1="586" y1="66" x2="604" y2="66" stroke="#ff7f0e" stroke-width="2"/>
<text x="610" y="66" dominant-baseline="middle" fill="#222">p95</text>
<line x1="586" y1="82" x2="604" y2="82" stroke="#2ca02c" stroke-width="2"/>
<text x="610" y="82" dominant-baseline="middle" fill="#222">min</text>
</svg>
