<?xml version="1.0" encoding="UTF-8"?>
<svg xmlns="http://www.w3.org/2000/svg" width="720" height="320" viewBox="0 0 720 320" font-family="-apple-system,BlinkMacSystemFont,Segoe UI,sans-serif" font-size="12">
<rect width="720" height="320" fill="#ffffff"/>
<text x="360" y="24" text-anchor="middle" font-size="14" font-weight="600" fill="#222">screen_diff_unchanged_frame — min / p50 / p95</text>
<line x1="72" y1="44.0" x2="696" y2="44.0" stroke="#e6e6e6" stroke-width="1"/>
<text x="64" y="44.0" text-anchor="end" dominant-baseline="middle" fill="#222">146.1k</text>
<line x1="72" y1="156.0" x2="696" y2="156.0" stroke="#e6e6e6" stroke-width="1"/>
<text x="64" y="156.0" text-anchor="end" dominant-baseline="middle" fill="#222">110.1k</text>
<line x1="72" y1="268.0" x2="696" y2="268.0" stroke="#e6e6e6" stroke-width="1"/>
<text x="64" y="268.0" text-anchor="end" dominant-baseline="middle" fill="#222">74.1k</text>
<text x="16" y="156" text-anchor="middle" fill="#222" transform="rotate(-90 16 156)">ns</text>
<line x1="72" y1="44" x2="72" y2="268" stroke="#444" stroke-width="1"/>
<line x1="72" y1="268" x2="696" y2="268" stroke="#444" stroke-width="1"/>
<line x1="72.0" y1="268" x2="72.0" y2="272" stroke="#444" stroke-width="1"/>
<text x="72.0" y="286" text-anchor="middle" fill="#222">2026-05-31</text>
<line x1="179.6" y1="268" x2="179.6" y2="272" stroke="#444" stroke-width="1"/>
<text x="179.6" y="286" text-anchor="middle" fill="#222">2026-06-05</text>
<line x1="287.2" y1="268" x2="287.2" y2="272" stroke="#444" stroke-width="1"/>
<text x="287.2" y="286" text-anchor="middle" fill="#222">2026-06-10</text>
<line x1="394.8" y1="268" x2="394.8" y2="272" stroke="#444" stroke-width="1"/>
<text x="394.8" y="286" text-anchor="middle" fill="#222">2026-06-15</text>
<line x1="502.3" y1="268" x2="502.3" y2="272" stroke="#444" stroke-width="1"/>
<text x="502.3" y="286" text-anchor="middle" fill="#222">2026-06-20</text>
<line x1="609.9" y1="268" x2="609.9" y2="272" stroke="#444" stroke-width="1"/>
<text x="609.9" y="286" text-anchor="middle" fill="#222">2026-06-25</text>
<line x1="696.0" y1="268" x2="696.0" y2="272" stroke="#444" stroke-width="1"/>
<text x="696.0" y="286" text-anchor="middle" fill="#222">2026-06-29</text>
<polyline fill="none" stroke="#1f77b4" stroke-width="2" stroke-linejoin="round" stroke-linecap="round" points="72.0,189.0 93.5,78.6 115.0,175.1 136.6,181.7 158.1,171.6 179.6,244.9 201.1,183.5 222.6,174.7 244.1,181.8 265.7,170.8 287.2,170.8 308.7,244.2 330.2,170.7 351.7,174.7 373.2,72.2 394.8,73.4 416.3,169.2 437.8,174.0 459.3,177.9 480.8,175.3 502.3,176.4 523.9,73.0 545.4,162.8 566.9,160.1 588.4,238.7 609.9,186.7 631.4,160.6 653.0,162.1 674.5,72.2 696.0,162.4"/>
<circle cx="696.0" cy="162.4" r="3" fill="#1f77b4"/>
<polyline fill="none" stroke="#ff7f0e" stroke-width="2" stroke-linejoin="round" stroke-linecap="round" points="72.0,187.2 93.5,62.7 115.0,173.8 136.6,177.8 158.1,161.5 179.6,237.3 201.1,180.4 222.6,169.8 244.1,179.2 265.7,168.2 287.2,141.9 308.7,241.0 330.2,166.8 351.7,170.4 373.2,67.6 394.8,69.0 416.3,162.0 437.8,170.6 459.3,174.3 480.8,172.0 502.3,172.3 523.9,66.7 545.4,154.5 566.9,134.9 588.4,236.5 609.9,176.6 631.4,157.6 653.0,157.0 674.5,65.9 696.0,159.8"/>
<circle cx="696.0" cy="159.8" r="3" fill="#ff7f0e"/>
<polyline fill="none" stroke="#2ca02c" stroke-width="2" stroke-linejoin="round" stroke-linecap="round" points="72.0,194.6 93.5,80.6 115.0,178.1 136.6,186.3 158.1,179.2 179.6,249.3 201.1,188.6 222.6,178.2 244.1,187.0 265.7,175.8 287.2,174.7 308.7,248.9 330.2,174.0 351.7,178.0 373.2,74.4 394.8,74.7 416.3,174.8 437.8,182.1 459.3,184.7 480.8,179.0 502.3,182.4 523.9,75.0 545.4,164.7 566.9,165.3 588.4,240.0 609.9,194.1 631.4,162.3 653.0,167.6 674.5,75.2 696.0,167.5"/>
<circle cx="696.0" cy="167.5" r="3" fill="#2ca02c"/>
<line x1="586" y1="50" x2="604" y2="50" stroke="#1f77b4" stroke-width="2"/>
<text x="610" y="50" dominant-baseline="middle" fill="#222">p50</text>
<line x1="586" y1="66" x2="604" y2="66" stroke="#ff7f0e" stroke-width="2"/>
<text x="610" y="66" dominant-baseline="middle" fill="#222">p95</text>
<line x1="586" y1="82" x2="604" y2="82" stroke="#2ca02c" stroke-width="2"/>
<text x="610" y="82" dominant-baseline="middle" fill="#222">min</text>
</svg>
