<?xml version="1.0" encoding="UTF-8"?>
<svg xmlns="http://www.w3.org/2000/svg" width="720" height="320" viewBox="0 0 720 320" font-family="-apple-system,BlinkMacSystemFont,Segoe UI,sans-serif" font-size="12">
<rect width="720" height="320" fill="#ffffff"/>
<text x="360" y="24" text-anchor="middle" font-size="14" font-weight="600" fill="#222">toml-theme — coverage edges</text>
<line x1="72" y1="44.0" x2="696" y2="44.0" stroke="#e6e6e6" stroke-width="1"/>
<text x="64" y="44.0" text-anchor="end" dominant-baseline="middle" fill="#222">400</text>
<line x1="72" y1="156.0" x2="696" y2="156.0" stroke="#e6e6e6" stroke-width="1"/>
<text x="64" y="156.0" text-anchor="end" dominant-baseline="middle" fill="#222">328</text>
<line x1="72" y1="268.0" x2="696" y2="268.0" stroke="#e6e6e6" stroke-width="1"/>
<text x="64" y="268.0" text-anchor="end" dominant-baseline="middle" fill="#222">255</text>
<text x="16" y="156" text-anchor="middle" fill="#222" transform="rotate(-90 16 156)">edges</text>
<line x1="72" y1="44" x2="72" y2="268" stroke="#444" stroke-width="1"/>
<line x1="72" y1="268" x2="696" y2="268" stroke="#444" stroke-width="1"/>
<line x1="72.0" y1="268" x2="72.0" y2="272" stroke="#444" stroke-width="1"/>
<text x="72.0" y="286" text-anchor="middle" fill="#222">2026-05-22</text>
<line x1="179.6" y1="268" x2="179.6" y2="272" stroke="#444" stroke-width="1"/>
<text x="179.6" y="286" text-anchor="middle" fill="#222">2026-05-25</text>
<line x1="287.2" y1="268" x2="287.2" y2="272" stroke="#444" stroke-width="1"/>
<text x="287.2" y="286" text-anchor="middle" fill="#222">2026-05-26</text>
<line x1="394.8" y1="268" x2="394.8" y2="272" stroke="#444" stroke-width="1"/>
<text x="394.8" y="286" text-anchor="middle" fill="#222">2026-05-26#6</text>
<line x1="502.3" y1="268" x2="502.3" y2="272" stroke="#444" stroke-width="1"/>
<text x="502.3" y="286" text-anchor="middle" fill="#222">2026-05-29#2</text>
<line x1="609.9" y1="268" x2="609.9" y2="272" stroke="#444" stroke-width="1"/>
<text x="609.9" y="286" text-anchor="middle" fill="#222">2026-05-31#2</text>
<line x1="696.0" y1="268" x2="696.0" y2="272" stroke="#444" stroke-width="1"/>
<text x="696.0" y="286" text-anchor="middle" fill="#222">2026-06-02#3</text>
<polyline fill="none" stroke="#1f77b4" stroke-width="2" stroke-linejoin="round" stroke-linecap="round" points="72.0,81.2 93.5,81.2 115.0,81.2 136.6,212.3 158.1,213.9 179.6,81.2 201.1,224.7 222.6,226.2 244.1,229.3 265.7,249.3 287.2,62.7 308.7,229.3 330.2,215.4 351.7,233.9 373.2,207.7 394.8,223.1 416.3,213.9 437.8,62.7 459.3,62.7 480.8,62.7 502.3,229.3 523.9,220.0 545.4,62.7 566.9,249.3 588.4,62.7 609.9,212.3 631.4,62.7 653.0,62.7 674.5,230.8 696.0,213.9"/>
<circle cx="696.0" cy="213.9" r="3" fill="#1f77b4"/>
</svg>
