<?xml version="1.0" encoding="UTF-8"?>
<svg xmlns="http://www.w3.org/2000/svg" width="720" height="320" viewBox="0 0 720 320" font-family="-apple-system,BlinkMacSystemFont,Segoe UI,sans-serif" font-size="12">
<rect width="720" height="320" fill="#ffffff"/>
<text x="360" y="24" text-anchor="middle" font-size="14" font-weight="600" fill="#222">vterm — corpus bytes</text>
<line x1="72" y1="44.0" x2="696" y2="44.0" stroke="#e6e6e6" stroke-width="1"/>
<text x="64" y="44.0" text-anchor="end" dominant-baseline="middle" fill="#222">1.2M</text>
<line x1="72" y1="156.0" x2="696" y2="156.0" stroke="#e6e6e6" stroke-width="1"/>
<text x="64" y="156.0" text-anchor="end" dominant-baseline="middle" fill="#222">598.8k</text>
<line x1="72" y1="268.0" x2="696" y2="268.0" stroke="#e6e6e6" stroke-width="1"/>
<text x="64" y="268.0" text-anchor="end" dominant-baseline="middle" fill="#222">0</text>
<text x="16" y="156" text-anchor="middle" fill="#222" transform="rotate(-90 16 156)">bytes</text>
<line x1="72" y1="44" x2="72" y2="268" stroke="#444" stroke-width="1"/>
<line x1="72" y1="268" x2="696" y2="268" stroke="#444" stroke-width="1"/>
<line x1="72.0" y1="268" x2="72.0" y2="272" stroke="#444" stroke-width="1"/>
<text x="72.0" y="286" text-anchor="middle" fill="#222">2026-05-19</text>
<line x1="196.8" y1="268" x2="196.8" y2="272" stroke="#444" stroke-width="1"/>
<text x="196.8" y="286" text-anchor="middle" fill="#222">2026-05-21#3</text>
<line x1="321.6" y1="268" x2="321.6" y2="272" stroke="#444" stroke-width="1"/>
<text x="321.6" y="286" text-anchor="middle" fill="#222">2026-05-24</text>
<line x1="446.4" y1="268" x2="446.4" y2="272" stroke="#444" stroke-width="1"/>
<text x="446.4" y="286" text-anchor="middle" fill="#222">2026-05-25#2</text>
<line x1="571.2" y1="268" x2="571.2" y2="272" stroke="#444" stroke-width="1"/>
<text x="571.2" y="286" text-anchor="middle" fill="#222">2026-05-26</text>
<line x1="696.0" y1="268" x2="696.0" y2="272" stroke="#444" stroke-width="1"/>
<text x="696.0" y="286" text-anchor="middle" fill="#222">2026-05-26#5</text>
<polyline fill="none" stroke="#1f77b4" stroke-width="2" stroke-linejoin="round" stroke-linecap="round" points="72.0,267.2 103.2,266.3 134.4,266.3 165.6,267.3 196.8,267.3 228.0,267.4 259.2,263.7 290.4,262.9 321.6,261.6 352.8,267.3 384.0,267.1 415.2,219.1 446.4,266.7 477.6,266.4 508.8,266.8 540.0,266.6 571.2,64.3 602.4,266.8 633.6,266.5 664.8,266.4 696.0,266.5"/>
<circle cx="696.0" cy="266.5" r="3" fill="#1f77b4"/>
</svg>
